<?xml version="1.0" encoding="UTF-8" standalone="no"?><!-- Generator: Gravit.io --><svg xmlns="http://www.w3.org/2000/svg" xmlns:xlink="http://www.w3.org/1999/xlink" style="isolation:isolate" viewBox="707 211.588 172 67" width="172pt" height="67pt"><defs><clipPath id="_clipPath_DrqZE9qRobruetr2rxgQ8QGkkh3PsV3y"><rect x="707" y="-869" width="2168" height="1148"/></clipPath></defs><g clip-path="url(#_clipPath_DrqZE9qRobruetr2rxgQ8QGkkh3PsV3y)"><rect x="1927" y="-869" width="948" height="674" transform="matrix(1,0,0,1,0,0)" fill="rgb(235,235,235)"/><clipPath id="_clipPath_J2xmuCE4vXtr2mY2tjwSWRVlwD2zr7Qz"><rect x="1927" y="-869" width="948" height="674" transform="matrix(1,0,0,1,0,0)" fill="rgb(235,235,235)"/></clipPath><g clip-path="url(#_clipPath_J2xmuCE4vXtr2mY2tjwSWRVlwD2zr7Qz)"><g style="mix-blend-mode:color-burn;"><path d=" M 1802 -740 C 1802 -977.875 2041.725 -1171 2337 -1171 C 2632.275 -1171 2872 -977.875 2872 -740 C 2872 -502.125 2632.275 -309 2337 -309 C 2041.725 -309 1802 -502.125 1802 -740 Z " fill="rgb(255,153,0)"/></g></g><g><g><path d=" M 817.344 223.608 L 817.344 223.608 L 817.344 223.608 Q 817.346 223.869 817.256 224.975 L 817.256 224.975 L 817.256 224.975 Q 817.166 226.082 817.008 227.905 L 817.008 227.905 L 817.008 227.905 Q 816.85 229.728 816.622 232.137 L 816.622 232.137 L 816.622 232.137 Q 816.395 234.547 816.17 237.324 L 816.17 237.324 L 816.17 237.324 Q 819.238 236.961 821.989 236.751 L 821.989 236.751 L 821.989 236.751 Q 824.741 236.541 826.642 236.53 L 826.642 236.53 L 826.642 236.53 Q 827.275 236.527 827.764 236.741 L 827.764 236.741 L 827.764 236.741 Q 828.252 236.956 828.571 237.236 L 828.571 237.236 L 828.571 237.236 Q 828.89 237.516 829.087 237.841 L 829.087 237.841 L 829.087 237.841 Q 829.284 238.165 829.334 238.382 L 829.334 238.382 L 829.334 238.382 Q 829.336 238.598 829.386 238.793 L 829.386 238.793 L 829.386 238.793 Q 829.436 238.988 829.437 239.205 L 829.437 239.205 L 829.437 239.205 Q 829.443 240.073 828.596 240.945 L 828.596 240.945 L 828.596 240.945 Q 827.749 241.818 826.046 242.044 L 826.046 242.044 L 815.674 243.097 L 815.674 243.097 Q 815.451 246.222 815.279 249.521 L 815.279 249.521 L 815.279 249.521 Q 815.106 252.819 814.958 256.095 L 814.958 256.095 L 814.958 256.095 Q 814.81 259.372 814.734 262.539 L 814.734 262.539 L 814.734 262.539 Q 814.658 265.707 814.677 268.527 L 814.677 268.527 L 814.677 268.527 Q 814.69 270.349 814.795 271.476 L 814.795 271.476 L 814.795 271.476 Q 814.9 272.604 814.902 272.951 L 814.902 272.951 L 814.902 272.951 Q 814.907 273.688 814.595 274.406 L 814.595 274.406 L 814.595 274.406 Q 814.283 275.124 813.873 275.711 L 813.873 275.711 L 813.873 275.711 Q 813.463 276.299 813.003 276.671 L 813.003 276.671 L 813.003 276.671 Q 812.542 277.042 812.25 277.044 L 812.25 277.044 L 812.25 277.044 Q 810.496 277.053 809.466 276.082 L 809.466 276.082 L 809.466 276.082 Q 808.436 275.112 807.913 273.466 L 807.913 273.466 L 807.913 273.466 Q 807.39 271.82 807.23 269.695 L 807.23 269.695 L 807.23 269.695 Q 807.069 267.57 807.053 265.271 L 807.053 265.271 L 807.053 265.271 Q 807.017 259.848 807.321 254.401 L 807.321 254.401 L 807.321 254.401 Q 807.625 248.955 808.224 243.919 L 808.224 243.919 L 802.137 244.602 L 802.137 244.602 Q 801.991 244.603 801.845 244.647 L 801.845 244.647 L 801.845 244.647 Q 801.7 244.691 801.505 244.692 L 801.505 244.692 L 801.505 244.692 Q 800.579 244.697 800.016 244.31 L 800.016 244.31 L 800.016 244.31 Q 799.453 243.922 799.157 243.403 L 799.157 243.403 L 799.157 243.403 Q 798.861 242.884 798.784 242.342 L 798.784 242.342 L 798.784 242.342 Q 798.707 241.801 798.705 241.497 L 798.705 241.497 L 798.705 241.497 Q 798.701 240.89 798.893 240.368 L 798.893 240.368 L 798.893 240.368 Q 799.084 239.846 799.619 239.713 L 799.619 239.713 L 799.619 239.713 Q 800.64 239.361 803.195 238.935 L 803.195 238.935 L 803.195 238.935 Q 805.751 238.509 808.964 238.058 L 808.964 238.058 L 808.964 238.058 Q 809.476 234.541 810.016 231.609 L 810.016 231.609 L 810.016 231.609 Q 810.557 228.678 811.078 226.527 L 811.078 226.527 L 811.078 226.527 Q 811.599 224.377 812.054 223.181 L 812.054 223.181 L 812.054 223.181 Q 812.509 221.986 812.85 221.984 L 812.85 221.984 L 812.85 221.984 Q 812.947 221.983 813.094 222.026 L 813.094 222.026 L 813.094 222.026 Q 813.24 222.069 813.338 222.068 L 813.338 222.068 L 813.338 222.068 Q 813.63 222.066 813.799 221.783 L 813.799 221.783 L 813.799 221.783 Q 813.967 221.501 814.455 221.498 L 814.455 221.498 L 814.455 221.498 Q 814.893 221.496 815.407 221.731 L 815.407 221.731 L 815.407 221.731 Q 815.92 221.967 816.336 222.312 L 816.336 222.312 L 816.336 222.312 Q 816.753 222.657 817.048 223.024 L 817.048 223.024 L 817.048 223.024 Q 817.343 223.391 817.344 223.608 Z  M 797.459 258.901 L 797.459 258.901 L 797.459 258.901 Q 797.463 259.378 797.516 260.029 L 797.516 260.029 L 797.516 260.029 Q 797.569 260.679 797.575 261.504 L 797.575 261.504 L 797.575 261.504 Q 797.582 262.545 797.251 264.087 L 797.251 264.087 L 797.251 264.087 Q 796.92 265.629 796.177 267.325 L 796.177 267.325 L 796.177 267.325 Q 795.433 269.021 794.178 270.72 L 794.178 270.72 L 794.178 270.72 Q 792.922 272.419 791.08 273.774 L 791.08 273.774 L 791.08 273.774 Q 789.237 275.128 786.734 275.988 L 786.734 275.988 L 786.734 275.988 Q 784.23 276.848 781.014 276.865 L 781.014 276.865 L 781.014 276.865 Q 778.139 276.88 775.136 275.92 L 775.136 275.92 L 775.136 275.92 Q 772.133 274.96 769.658 272.913 L 769.658 272.913 L 769.658 272.913 Q 767.183 270.865 765.578 267.685 L 765.578 267.685 L 765.578 267.685 Q 763.973 264.505 763.943 260.08 L 763.943 260.08 L 763.943 260.08 Q 763.924 257.303 764.709 254.609 L 764.709 254.609 L 764.709 254.609 Q 765.495 251.915 766.819 249.522 L 766.819 249.522 L 766.819 249.522 Q 768.143 247.128 769.956 245.101 L 769.956 245.101 L 769.956 245.101 Q 771.77 243.074 773.782 241.61 L 773.782 241.61 L 773.782 241.61 Q 775.794 240.145 777.957 239.309 L 777.957 239.309 L 777.957 239.309 Q 780.12 238.473 782.166 238.462 L 782.166 238.462 L 782.166 238.462 Q 785.723 238.443 788.044 239.428 L 788.044 239.428 L 788.044 239.428 Q 790.366 240.414 791.74 241.882 L 791.74 241.882 L 791.74 241.882 Q 793.114 243.349 793.686 245.017 L 793.686 245.017 L 793.686 245.017 Q 794.258 246.684 794.267 248.029 L 794.267 248.029 L 794.267 248.029 Q 794.276 249.33 793.581 251.004 L 793.581 251.004 L 793.581 251.004 Q 792.885 252.678 791.288 254.184 L 791.288 254.184 L 791.288 254.184 Q 789.69 255.689 787.114 256.723 L 787.114 256.723 L 787.114 256.723 Q 784.539 257.756 780.787 257.776 L 780.787 257.776 L 780.787 257.776 Q 778.789 257.787 777.202 257.297 L 777.202 257.297 L 777.202 257.297 Q 775.615 256.806 774.392 256.054 L 774.392 256.054 L 774.392 256.054 Q 773.168 255.301 772.31 254.416 L 772.31 254.416 L 772.31 254.416 Q 771.451 253.532 770.861 252.754 L 770.861 252.754 L 770.861 252.754 Q 770.002 255.448 770.027 259.049 L 770.027 259.049 L 770.027 259.049 Q 770.043 261.522 770.861 263.492 L 770.861 263.492 L 770.861 263.492 Q 771.678 265.461 773.101 266.842 L 773.101 266.842 L 773.101 266.842 Q 774.523 268.223 776.477 268.95 L 776.477 268.95 L 776.477 268.95 Q 778.431 269.677 780.77 269.664 L 780.77 269.664 L 780.77 269.664 Q 783.694 269.648 785.88 268.747 L 785.88 268.747 L 785.88 268.747 Q 788.067 267.846 789.69 266.492 L 789.69 266.492 L 789.69 266.492 Q 791.313 265.139 792.496 263.549 L 792.496 263.549 L 792.496 263.549 Q 793.679 261.959 794.547 260.631 L 794.547 260.631 L 794.547 260.631 Q 795.416 259.303 796.067 258.432 L 796.067 258.432 L 796.067 258.432 Q 796.719 257.56 797.353 257.6 L 797.353 257.6 L 797.353 257.6 Q 797.645 257.599 797.648 258.033 L 797.648 258.033 L 797.648 258.033 Q 797.65 258.249 797.603 258.467 L 797.603 258.467 L 797.603 258.467 Q 797.555 258.684 797.459 258.901 Z  M 782.683 242.841 L 782.683 242.841 L 782.683 242.841 Q 781.806 242.846 780.42 243.179 L 780.42 243.179 L 780.42 243.179 Q 779.033 243.512 777.504 244.345 L 777.504 244.345 L 777.504 244.345 Q 775.974 245.177 774.474 246.595 L 774.474 246.595 L 774.474 246.595 Q 772.973 248.013 771.867 250.189 L 771.867 250.189 L 771.867 250.189 Q 772.547 249.881 773.057 249.662 L 773.057 249.662 L 773.057 249.662 Q 773.567 249.442 773.762 249.441 L 773.762 249.441 L 773.762 249.441 Q 773.859 249.44 774.056 249.613 L 774.056 249.613 L 774.056 249.613 Q 775.188 251.299 776.874 252.005 L 776.874 252.005 L 776.874 252.005 Q 778.56 252.712 780.655 252.701 L 780.655 252.701 L 780.655 252.701 Q 782.312 252.692 783.502 252.187 L 783.502 252.187 L 783.502 252.187 Q 784.692 251.681 785.467 250.896 L 785.467 250.896 L 785.467 250.896 Q 786.241 250.111 786.576 249.176 L 786.576 249.176 L 786.576 249.176 Q 786.91 248.242 786.904 247.331 L 786.904 247.331 L 786.904 247.331 Q 786.891 245.379 785.762 244.105 L 785.762 244.105 L 785.762 244.105 Q 784.632 242.831 782.683 242.841 Z  M 762.028 243.734 L 762.028 243.734 L 762.028 243.734 Q 761.988 244.992 761.777 246.23 L 761.777 246.23 L 761.777 246.23 Q 761.567 247.467 761.184 248.576 L 761.184 248.576 L 761.184 248.576 Q 760.802 249.684 760.248 250.555 L 760.248 250.555 L 760.248 250.555 Q 759.693 251.426 759.014 251.95 L 759.014 251.95 L 759.014 251.95 Q 758.433 252.387 758.092 252.389 L 758.092 252.389 L 758.092 252.389 Q 757.751 252.391 757.53 252.218 L 757.53 252.218 L 757.53 252.218 Q 757.31 252.046 757.162 251.83 L 757.162 251.83 L 757.162 251.83 Q 757.014 251.614 756.77 251.572 L 756.77 251.572 L 756.77 251.572 Q 756.575 251.529 756.259 251.596 L 756.259 251.596 L 756.259 251.596 Q 755.943 251.663 755.626 251.621 L 755.626 251.621 L 755.626 251.621 Q 755.309 251.579 755.039 251.299 L 755.039 251.299 L 755.039 251.299 Q 754.769 251.018 754.666 250.281 L 754.666 250.281 L 754.666 250.281 Q 754.563 249.458 754.725 248.133 L 754.725 248.133 L 754.725 248.133 Q 754.886 246.809 754.878 245.551 L 754.878 245.551 L 754.878 245.551 Q 754.87 244.423 754.597 243.665 L 754.597 243.665 L 754.597 243.665 Q 754.324 242.908 753.642 242.911 L 753.642 242.911 L 753.642 242.911 Q 753.301 242.913 752.451 243.373 L 752.451 243.373 L 752.451 243.373 Q 751.601 243.833 750.588 245.314 L 750.588 245.314 L 750.588 245.314 Q 749.575 246.795 748.571 249.598 L 748.571 249.598 L 748.571 249.598 Q 747.566 252.402 746.965 257.048 L 746.965 257.048 L 746.965 257.048 Q 747.005 263.035 747.128 266.678 L 747.128 266.678 L 747.128 266.678 Q 747.25 270.322 747.264 272.361 L 747.264 272.361 L 747.264 272.361 Q 747.275 274.097 747.183 274.835 L 747.183 274.835 L 747.183 274.835 Q 747.091 275.573 746.702 275.792 L 746.702 275.792 L 746.702 275.792 Q 746.46 275.923 745.754 276.122 L 745.754 276.122 L 745.754 276.122 Q 745.049 276.321 744.246 276.499 L 744.246 276.499 L 744.246 276.499 Q 743.444 276.677 742.714 276.811 L 742.714 276.811 L 742.714 276.811 Q 741.984 276.945 741.788 276.903 L 741.788 276.903 L 741.788 276.903 Q 741.642 276.86 741.25 276.624 L 741.25 276.624 L 741.25 276.624 Q 740.859 276.387 740.442 276.042 L 740.442 276.042 L 740.442 276.042 Q 740.026 275.697 739.682 275.331 L 739.682 275.331 L 739.682 275.331 Q 739.339 274.964 739.288 274.704 L 739.288 274.704 L 739.288 274.704 Q 739.188 274.27 739.202 272.73 L 739.202 272.73 L 739.202 272.73 Q 739.216 271.19 739.225 269.02 L 739.225 269.02 L 739.225 269.02 Q 739.235 266.851 739.266 264.269 L 739.266 264.269 L 739.266 264.269 Q 739.297 261.688 739.28 259.128 L 739.28 259.128 L 739.28 259.128 Q 739.269 257.48 739.377 255.462 L 739.377 255.462 L 739.377 255.462 Q 739.485 253.444 739.641 251.36 L 739.641 251.36 L 739.641 251.36 Q 739.797 249.277 739.979 247.28 L 739.979 247.28 L 739.979 247.28 Q 740.16 245.283 740.32 243.699 L 740.32 243.699 L 740.32 243.699 Q 740.48 242.115 740.594 241.051 L 740.594 241.051 L 740.594 241.051 Q 740.709 239.987 740.756 239.77 L 740.756 239.77 L 740.756 239.77 Q 740.802 239.423 741.12 239.508 L 741.12 239.508 L 741.12 239.508 Q 741.437 239.593 741.804 239.808 L 741.804 239.808 L 741.804 239.808 Q 742.171 240.023 742.464 240.195 L 742.464 240.195 L 742.464 240.195 Q 742.758 240.367 742.854 240.193 L 742.854 240.193 L 742.854 240.193 Q 742.949 239.802 743.584 240.08 L 743.584 240.08 L 743.584 240.08 Q 744.22 240.359 744.758 240.703 L 744.758 240.703 L 744.758 240.703 Q 744.955 240.919 745.224 241.069 L 745.224 241.069 L 745.224 241.069 Q 745.493 241.22 745.738 241.457 L 745.738 241.457 L 745.738 241.457 Q 745.983 241.694 746.156 242.084 L 746.156 242.084 L 746.156 242.084 Q 746.329 242.473 746.334 243.124 L 746.334 243.124 L 746.334 243.124 Q 746.338 243.732 746.444 244.946 L 746.444 244.946 L 746.444 244.946 Q 746.549 246.16 746.707 247.808 L 746.707 247.808 L 746.707 247.808 Q 747.232 246.243 747.976 244.504 L 747.976 244.504 L 747.976 244.504 Q 748.719 242.764 749.781 241.305 L 749.781 241.305 L 749.781 241.305 Q 750.843 239.846 752.299 238.884 L 752.299 238.884 L 752.299 238.884 Q 753.754 237.921 755.8 237.91 L 755.8 237.91 L 755.8 237.91 Q 756.921 237.904 758.044 238.289 L 758.044 238.289 L 758.044 238.289 Q 759.168 238.673 760.074 239.427 L 760.074 239.427 L 760.074 239.427 Q 760.981 240.182 761.524 241.264 L 761.524 241.264 L 761.524 241.264 Q 762.068 242.345 762.028 243.734 Z  M 736.419 246.822 L 736.419 246.822 L 736.419 246.822 Q 735.541 246.827 733.934 246.966 L 733.934 246.966 L 733.934 246.966 Q 732.327 247.104 730.355 247.31 L 730.355 247.31 L 730.355 247.31 Q 728.383 247.516 726.265 247.81 L 726.265 247.81 L 726.265 247.81 Q 724.148 248.103 722.25 248.417 L 722.25 248.417 L 722.25 248.417 Q 722.168 250.76 722.113 253.364 L 722.113 253.364 L 722.113 253.364 Q 722.057 255.967 722.002 258.614 L 722.002 258.614 L 722.002 258.614 Q 721.947 261.261 721.891 263.756 L 721.891 263.756 L 721.891 263.756 Q 721.835 266.251 721.801 268.377 L 721.801 268.377 L 721.801 268.377 Q 721.766 270.503 721.777 272.086 L 721.777 272.086 L 721.777 272.086 Q 721.788 273.67 721.842 274.451 L 721.842 274.451 L 721.842 274.451 Q 721.952 276.359 721.762 277.054 L 721.762 277.054 L 721.762 277.054 Q 721.572 277.749 721.232 277.86 L 721.232 277.86 L 721.232 277.86 Q 720.891 277.97 720.5 277.712 L 720.5 277.712 L 720.5 277.712 Q 720.108 277.454 719.864 277.368 L 719.864 277.368 L 719.864 277.368 Q 719.62 277.326 719.5 277.587 L 719.5 277.587 L 719.5 277.587 Q 719.38 277.848 719.285 278.174 L 719.285 278.174 L 719.285 278.174 Q 719.189 278.5 719.045 278.783 L 719.045 278.783 L 719.045 278.783 Q 718.901 279.065 718.559 278.98 L 718.559 278.98 L 718.559 278.98 Q 717.974 278.853 717.092 278.229 L 717.092 278.229 L 717.092 278.229 Q 716.211 277.605 715.669 276.697 L 715.669 276.697 L 715.669 276.697 Q 715.373 276.221 715.223 275.636 L 715.223 275.636 L 715.223 275.636 Q 715.073 275.051 714.825 274.402 L 714.825 274.402 L 714.825 274.402 Q 714.724 273.968 714.646 273.144 L 714.646 273.144 L 714.646 273.144 Q 714.567 272.321 714.511 271.193 L 714.511 271.193 L 714.511 271.193 Q 714.454 270.065 714.42 268.677 L 714.42 268.677 L 714.42 268.677 Q 714.387 267.289 714.376 265.77 L 714.376 265.77 L 714.376 265.77 Q 714.362 263.731 714.372 261.562 L 714.372 261.562 L 714.372 261.562 Q 714.382 259.393 714.416 257.288 L 714.416 257.288 L 714.416 257.288 Q 714.45 255.184 714.486 253.275 L 714.486 253.275 L 714.486 253.275 Q 714.522 251.365 714.56 249.847 L 714.56 249.847 L 714.56 249.847 Q 713.587 250.069 712.249 250.402 L 712.249 250.402 L 712.249 250.402 Q 710.912 250.734 709.112 251.221 L 709.112 251.221 L 709.112 251.221 Q 708.431 251.442 708.137 251.14 L 708.137 251.14 L 708.137 251.14 Q 707.843 250.837 708.275 249.967 L 708.275 249.967 L 708.275 249.967 Q 708.42 249.75 708.224 249.621 L 708.224 249.621 L 708.224 249.621 Q 708.028 249.492 707.76 249.384 L 707.76 249.384 L 707.76 249.384 Q 707.491 249.277 707.246 249.149 L 707.246 249.149 L 707.246 249.149 Q 707.002 249.02 707 248.759 L 707 248.759 L 707 248.759 Q 706.998 248.499 707.069 248.152 L 707.069 248.152 L 707.069 248.152 Q 707.14 247.804 707.382 247.673 L 707.382 247.673 L 707.382 247.673 Q 707.917 247.41 709.568 246.555 L 709.568 246.555 L 709.568 246.555 Q 711.219 245.7 714.429 244.815 L 714.429 244.815 L 714.429 244.815 Q 714.345 239.696 715.049 235.7 L 715.049 235.7 L 715.049 235.7 Q 715.753 231.705 716.975 228.683 L 716.975 228.683 L 716.975 228.683 Q 718.197 225.661 719.863 223.526 L 719.863 223.526 L 719.863 223.526 Q 721.53 221.392 723.348 219.993 L 723.348 219.993 L 723.348 219.993 Q 725.165 218.595 727.036 217.848 L 727.036 217.848 L 727.036 217.848 Q 728.907 217.1 730.611 216.83 L 730.611 216.83 L 730.611 216.83 Q 732.947 216.427 734.78 217.198 L 734.78 217.198 L 734.78 217.198 Q 736.612 217.97 737.84 219.373 L 737.84 219.373 L 737.84 219.373 Q 739.068 220.776 739.713 222.53 L 739.713 222.53 L 739.713 222.53 Q 740.358 224.284 740.369 225.889 L 740.369 225.889 L 740.369 225.889 Q 740.383 227.841 740.149 229.339 L 740.149 229.339 L 740.149 229.339 Q 739.916 230.837 739.606 231.902 L 739.606 231.902 L 739.606 231.902 Q 739.297 232.967 738.936 233.641 L 738.936 233.641 L 738.936 233.641 Q 738.575 234.315 738.333 234.62 L 738.333 234.62 L 738.333 234.62 Q 737.9 235.36 737.489 235.796 L 737.489 235.796 L 737.489 235.796 Q 737.077 236.232 736.832 235.973 L 736.832 235.973 L 736.832 235.973 Q 736.538 235.758 736.196 235.651 L 736.196 235.651 L 736.196 235.651 Q 735.855 235.545 735.537 235.416 L 735.537 235.416 L 735.537 235.416 Q 735.219 235.288 735.023 235.115 L 735.023 235.115 L 735.023 235.115 Q 734.827 234.943 734.825 234.553 L 734.825 234.553 L 734.825 234.553 Q 734.823 234.379 734.653 234.337 L 734.653 234.337 L 734.653 234.337 Q 734.482 234.294 734.311 234.23 L 734.311 234.23 L 734.311 234.23 Q 734.14 234.166 733.993 234.036 L 733.993 234.036 L 733.993 234.036 Q 733.846 233.907 733.941 233.603 L 733.941 233.603 L 733.941 233.603 Q 734.509 231.083 734.492 228.697 L 734.492 228.697 L 734.492 228.697 Q 734.479 226.745 734.054 225.12 L 734.054 225.12 L 734.054 225.12 Q 733.629 223.496 732.817 222.35 L 732.817 222.35 L 732.817 222.35 Q 732.005 221.205 730.808 220.712 L 730.808 220.712 L 730.808 220.712 Q 729.611 220.22 728.054 220.575 L 728.054 220.575 L 728.054 220.575 Q 726.983 220.798 725.995 222.365 L 725.995 222.365 L 725.995 222.365 Q 725.007 223.933 724.222 226.8 L 724.222 226.8 L 724.222 226.8 Q 723.438 229.668 722.93 233.771 L 722.93 233.771 L 722.93 233.771 Q 722.422 237.873 722.311 243.167 L 722.311 243.167 L 722.311 243.167 Q 726.351 242.451 732.195 242.029 L 732.195 242.029 L 732.195 242.029 Q 732.78 241.982 733.122 242.089 L 733.122 242.089 L 733.122 242.089 Q 733.463 242.196 733.757 242.411 L 733.757 242.411 L 733.757 242.411 Q 734.051 242.626 734.37 242.972 L 734.37 242.972 L 734.37 242.972 Q 734.689 243.317 735.18 243.792 L 735.18 243.792 L 735.18 243.792 Q 735.67 244.266 736.161 244.806 L 736.161 244.806 L 736.161 244.806 Q 736.652 245.346 736.899 245.8 L 736.899 245.8 L 736.899 245.8 Q 737.146 246.254 737.075 246.558 L 737.075 246.558 L 737.075 246.558 Q 737.004 246.862 736.419 246.822 Z " fill="rgb(95,147,95)"/><path d=" M 879.334 217.677 L 879.334 217.677 L 879.334 217.677 Q 879.389 218.545 879.274 219.608 L 879.274 219.608 L 879.274 219.608 Q 879.16 220.672 878.899 221.671 L 878.899 221.671 L 878.899 221.671 Q 878.637 222.67 878.18 223.454 L 878.18 223.454 L 878.18 223.454 Q 877.722 224.237 877.091 224.544 L 877.091 224.544 L 877.091 224.544 Q 875.488 225.291 874.27 225.297 L 874.27 225.297 L 874.27 225.297 Q 873.295 225.302 872.586 224.894 L 872.586 224.894 L 872.586 224.894 Q 871.877 224.486 871.191 223.969 L 871.191 223.969 L 871.191 223.969 Q 870.212 223.28 869.546 222.155 L 869.546 222.155 L 869.546 222.155 Q 868.881 221.031 868.874 219.99 L 868.874 219.99 L 868.874 219.99 Q 868.868 219.165 869.177 217.971 L 869.177 217.971 L 869.177 217.971 Q 869.485 216.776 869.965 215.645 L 869.965 215.645 L 869.965 215.645 Q 870.444 214.515 870.998 213.579 L 870.998 213.579 L 870.998 213.579 Q 871.552 212.643 872.086 212.293 L 872.086 212.293 L 872.086 212.293 Q 872.91 211.681 873.616 211.612 L 873.616 211.612 L 873.616 211.612 Q 874.322 211.544 874.762 211.671 L 874.762 211.671 L 874.762 211.671 Q 875.835 211.882 876.666 212.203 L 876.666 212.203 L 876.666 212.203 Q 877.496 212.524 878.061 213.194 L 878.061 213.194 L 878.061 213.194 Q 878.626 213.863 878.926 214.946 L 878.926 214.946 L 878.926 214.946 Q 879.226 216.029 879.334 217.677 Z  M 875.471 237.092 L 875.471 237.092 L 875.471 237.092 Q 875.716 237.307 875.846 238.521 L 875.846 238.521 L 875.846 238.521 Q 875.976 239.735 875.989 241.688 L 875.989 241.688 L 875.989 241.688 Q 875.998 242.989 875.96 244.508 L 875.96 244.508 L 875.96 244.508 Q 875.921 246.027 875.859 247.632 L 875.859 247.632 L 875.859 247.632 Q 875.797 249.238 875.711 250.865 L 875.711 250.865 L 875.711 250.865 Q 875.624 252.493 875.586 253.968 L 875.586 253.968 L 875.586 253.968 Q 875.456 256.398 875.446 258.459 L 875.446 258.459 L 875.446 258.459 Q 875.435 260.52 875.448 262.429 L 875.448 262.429 L 875.448 262.429 Q 875.465 264.945 875.528 267.027 L 875.528 267.027 L 875.528 267.027 Q 875.591 269.11 875.6 270.498 L 875.6 270.498 L 875.6 270.498 Q 875.611 272.016 875.494 272.82 L 875.494 272.82 L 875.494 272.82 Q 875.378 273.623 874.989 273.712 L 874.989 273.712 L 874.989 273.712 Q 874.551 273.801 874.26 274.084 L 874.26 274.084 L 874.26 274.084 Q 873.97 274.368 873.728 274.63 L 873.728 274.63 L 873.728 274.63 Q 873.486 274.891 873.171 275.088 L 873.171 275.088 L 873.171 275.088 Q 872.856 275.285 872.416 275.201 L 872.416 275.201 L 872.416 275.201 Q 872.173 275.159 871.585 274.815 L 871.585 274.815 L 871.585 274.815 Q 870.998 274.471 870.337 273.975 L 870.337 273.975 L 870.337 273.975 Q 869.676 273.48 869.087 272.832 L 869.087 272.832 L 869.087 272.832 Q 868.498 272.185 868.298 271.492 L 868.298 271.492 L 868.298 271.492 Q 868.198 271.145 868.118 270.104 L 868.118 270.104 L 868.118 270.104 Q 868.038 269.063 867.979 267.589 L 867.979 267.589 L 867.979 267.589 Q 867.92 266.114 867.859 264.314 L 867.859 264.314 L 867.859 264.314 Q 867.798 262.514 867.762 260.67 L 867.762 260.67 L 867.762 260.67 Q 867.725 258.826 867.713 257.047 L 867.713 257.047 L 867.713 257.047 Q 867.7 255.269 867.691 253.837 L 867.691 253.837 L 867.691 253.837 Q 867.676 251.624 867.831 249.324 L 867.831 249.324 L 867.831 249.324 Q 867.985 247.024 868.191 245.027 L 868.191 245.027 L 868.191 245.027 Q 868.397 243.03 868.606 241.532 L 868.606 241.532 L 868.606 241.532 Q 868.815 240.034 868.908 239.426 L 868.908 239.426 L 868.908 239.426 Q 869.096 238.384 869.311 237.797 L 869.311 237.797 L 869.311 237.797 Q 869.527 237.21 869.793 236.949 L 869.793 236.949 L 869.793 236.949 Q 870.059 236.687 870.327 236.62 L 870.327 236.62 L 870.327 236.62 Q 870.594 236.554 870.886 236.509 L 870.886 236.509 L 870.886 236.509 Q 871.47 236.419 872.226 236.458 L 872.226 236.458 L 872.226 236.458 Q 872.982 236.498 873.664 236.581 L 873.664 236.581 L 873.664 236.581 Q 874.347 236.664 874.86 236.813 L 874.86 236.813 L 874.86 236.813 Q 875.372 236.962 875.471 237.092 Z  M 858.219 272.544 L 858.219 272.544 L 858.219 272.544 Q 858.222 273.064 857.812 273.696 L 857.812 273.696 L 857.812 273.696 Q 857.402 274.327 856.623 274.331 L 856.623 274.331 L 856.623 274.331 Q 856.184 274.334 855.939 274.118 L 855.939 274.118 L 855.939 274.118 Q 855.694 273.902 855.45 273.904 L 855.45 273.904 L 855.45 273.904 Q 855.109 273.906 854.794 274.124 L 854.794 274.124 L 854.794 274.124 Q 854.479 274.343 853.748 274.347 L 853.748 274.347 L 853.748 274.347 Q 852.773 274.352 852.062 273.727 L 852.062 273.727 L 852.062 273.727 Q 851.352 273.102 850.906 272.128 L 850.906 272.128 L 850.906 272.128 Q 850.461 271.154 850.234 270.005 L 850.234 270.005 L 850.234 270.005 Q 850.007 268.857 850 267.859 L 850 267.859 L 850 267.859 Q 849.987 265.907 850.141 263.411 L 850.141 263.411 L 850.141 263.411 Q 850.294 260.916 850.496 258.29 L 850.496 258.29 L 850.496 258.29 Q 850.697 255.664 850.85 253.06 L 850.85 253.06 L 850.85 253.06 Q 851.003 250.456 850.988 248.243 L 850.988 248.243 L 850.988 248.243 Q 850.968 245.293 850.518 243.647 L 850.518 243.647 L 850.518 243.647 Q 850.068 242.001 848.947 242.007 L 848.947 242.007 L 848.947 242.007 Q 847.876 242.143 846.766 243.667 L 846.766 243.667 L 846.766 243.667 Q 845.656 245.192 844.502 247.563 L 844.502 247.563 L 844.502 247.563 Q 843.349 249.933 842.248 252.911 L 842.248 252.911 L 842.248 252.911 Q 841.148 255.889 840.121 258.997 L 840.121 258.997 L 840.121 258.997 Q 839.095 262.104 838.189 265.038 L 838.189 265.038 L 838.189 265.038 Q 837.283 267.971 836.568 270.274 L 836.568 270.274 L 836.568 270.274 Q 835.853 272.578 835.326 273.991 L 835.326 273.991 L 835.326 273.991 Q 834.8 275.403 834.605 275.404 L 834.605 275.404 L 834.605 275.404 Q 834.215 275.407 834.019 275.256 L 834.019 275.256 L 834.019 275.256 Q 833.823 275.105 833.652 274.932 L 833.652 274.932 L 833.652 274.932 Q 833.48 274.76 833.235 274.609 L 833.235 274.609 L 833.235 274.609 Q 832.99 274.459 832.503 274.461 L 832.503 274.461 L 832.503 274.461 Q 832.065 274.464 831.919 274.551 L 831.919 274.551 L 831.919 274.551 Q 831.773 274.639 831.579 274.77 L 831.579 274.77 L 831.579 274.77 Q 831.385 274.901 831.094 274.99 L 831.094 274.99 L 831.094 274.99 Q 830.802 275.078 830.071 275.082 L 830.071 275.082 L 830.071 275.082 Q 829.194 275.087 828.339 274.701 L 828.339 274.701 L 828.339 274.701 Q 827.483 274.315 827.478 273.491 L 827.478 273.491 L 827.478 273.491 Q 827.474 272.97 827.658 271.342 L 827.658 271.342 L 827.658 271.342 Q 827.842 269.714 828.094 267.348 L 828.094 267.348 L 828.094 267.348 Q 828.346 264.982 828.642 262.052 L 828.642 262.052 L 828.642 262.052 Q 828.939 259.122 829.186 255.997 L 829.186 255.997 L 829.186 255.997 Q 829.433 252.872 829.606 249.747 L 829.606 249.747 L 829.606 249.747 Q 829.78 246.622 829.761 243.802 L 829.761 243.802 L 829.761 243.802 Q 829.751 242.414 829.695 241.221 L 829.695 241.221 L 829.695 241.221 Q 829.638 240.029 829.63 238.944 L 829.63 238.944 L 829.63 238.944 Q 829.629 238.684 829.921 238.682 L 829.921 238.682 L 829.921 238.682 Q 830.506 238.679 830.824 238.872 L 830.824 238.872 L 830.824 238.872 Q 831.142 239.066 831.289 239.282 L 831.289 239.282 L 831.289 239.282 Q 831.437 239.498 831.463 239.693 L 831.463 239.693 L 831.463 239.693 Q 831.488 239.888 831.537 239.888 L 831.537 239.888 L 831.537 239.888 Q 831.683 239.887 831.877 239.734 L 831.877 239.734 L 831.877 239.734 Q 832.071 239.582 832.289 239.407 L 832.289 239.407 L 832.289 239.407 Q 832.507 239.232 832.701 239.079 L 832.701 239.079 L 832.701 239.079 Q 832.895 238.926 833.041 238.926 L 833.041 238.926 L 833.528 238.923 L 833.528 238.923 Q 834.259 238.919 834.55 238.722 L 834.55 238.722 L 834.55 238.722 Q 834.841 238.525 834.962 238.286 L 834.962 238.286 L 834.962 238.286 Q 835.082 238.047 835.129 237.851 L 835.129 237.851 L 835.129 237.851 Q 835.177 237.656 835.42 237.655 L 835.42 237.655 L 835.42 237.655 Q 835.566 237.654 835.836 237.848 L 835.836 237.848 L 835.836 237.848 Q 836.105 238.041 836.376 238.495 L 836.376 238.495 L 836.376 238.495 Q 836.647 238.949 836.847 239.686 L 836.847 239.686 L 836.847 239.686 Q 837.047 240.422 837.054 241.464 L 837.054 241.464 L 837.054 241.464 Q 837.064 242.852 836.956 244.978 L 836.956 244.978 L 836.956 244.978 Q 836.849 247.105 836.695 249.514 L 836.695 249.514 L 836.695 249.514 Q 836.541 251.922 836.411 254.374 L 836.411 254.374 L 836.411 254.374 Q 836.281 256.826 836.246 258.822 L 836.246 258.822 L 836.246 258.822 Q 836.77 256.954 837.509 254.672 L 837.509 254.672 L 837.509 254.672 Q 838.249 252.39 839.232 250.042 L 839.232 250.042 L 839.232 250.042 Q 840.215 247.694 841.369 245.454 L 841.369 245.454 L 841.369 245.454 Q 842.524 243.213 843.876 241.47 L 843.876 241.47 L 843.876 241.47 Q 845.229 239.728 846.732 238.657 L 846.732 238.657 L 846.732 238.657 Q 848.235 237.585 849.892 237.577 L 849.892 237.577 L 849.892 237.577 Q 852.523 237.562 854.21 238.421 L 854.21 238.421 L 854.21 238.421 Q 855.897 239.28 856.882 240.793 L 856.882 240.793 L 856.882 240.793 Q 857.867 242.306 858.246 244.343 L 858.246 244.343 L 858.246 244.343 Q 858.625 246.38 858.641 248.723 L 858.641 248.723 L 858.641 248.723 Q 858.655 250.719 858.475 252.91 L 858.475 252.91 L 858.475 252.91 Q 858.295 255.102 858.09 257.294 L 858.09 257.294 L 858.09 257.294 Q 857.886 259.487 857.73 261.613 L 857.73 261.613 L 857.73 261.613 Q 857.574 263.74 857.587 265.606 L 857.587 265.606 L 857.587 265.606 Q 857.602 267.905 857.907 269.747 L 857.907 269.747 L 857.907 269.747 Q 858.212 271.589 858.219 272.544 Z " fill="rgb(116,116,116)"/></g></g></g></svg>